# xmcd
#
# Track frame offsets:
#	150
#	18655
#	36288
#	50370
#	86191
#	109416
#	127710
#	143126
#	162063
#	178507
#	197300
#	212973
#	228775
#	248571
#	270267
#
# Disc length: 3871 seconds
# Revision: 3
# Processed by: cddbd v1.5.2PL0 Copyright (c) Steve Scherf et al.
# Submitted via: dBpowerAMP V12.0
#
DISCID=c00f1d0f
DTITLE=Various Artist - White Gold
DYEAR=1973
DGENRE=Soul
TTITLE0=Love Unlimited Orchestra - Love's Theme
TTITLE1=Barry White - I'm Gonna Love You Just A Little Bit More Baby
TTITLE2=Barry White - I've Got So Much To Give
TTITLE3=Barry White - Never Never Gonna Give You Up
TTITLE4=Barry White - Honey Please Can't You See
TTITLE5=Barry White - Can't Get Enough Of Your Love Babe
TTITLE6=Barry White - You're The First, The Last, My Everything
TTITLE7=Love Unlimited Orchestra - Satin Soul
TTITLE8=Barry White - What Am I Gonna Do With You
TTITLE9=Barry White - I'll Do For You Anything You Want Me To
TTITLE10=Barry White - Let The Music Play
TTITLE11=Barry White - You See The Trouble With Me
TTITLE12=Barry White - Baby We Better Try To Get It Together
TTITLE13=Love Unlimited - Walking In The Rain (With The One I Love)
TTITLE14=Love Unlimited - It May Be Winter Outside (But In My Heart It's Spring)
EXTD=
EXTT0=
EXTT1=
EXTT2=
EXTT3=
EXTT4=
EXTT5=
EXTT6=
EXTT7=
EXTT8=
EXTT9=
EXTT10=
EXTT11=
EXTT12=
EXTT13=
EXTT14=
PLAYORDER=
